PathFileType	3	(X/Y/Z)	D:\minhoCalibration\240510\subject5_KPNP\preferred\preferred06.trc
DataRate	CameraRate	NumFrames	NumMarkers	Units	OrigDataRate	OrigDataStartFrame	OrigNumFrames
200.0	200.0	12	10	mm	200.0	202	159	
Frame#	Time	Left_Ankle_Outer1			Left_Ankle_Inner1			Left_Knee_Outer1			Left_Knee_Inner1			Left_Wrist1			Right_Wrist1			Right_Knee_Inner1			Right_Knee_Outer1			Right_Ankle_Inner1			Right_Ankle_Outer1			
		X1	Y1	Z1	X2	Y2	Z2	X3	Y3	Z3	X4	Y4	Z4	X5	Y5	Z5	X6	Y6	Z6	X7	Y7	Z7	X8	Y8	Z8	X9	Y9	Z9	X10	Y10	Z10	
202	1	-322.26575	76.534424	-676.00488	-371.69275	86.851624	-658.18463	-211.27943	527.77686	-545.84039	-307.82733	514.24371	-531.66736	-187.44534	971.6286	-752.70538	-481.52844	1008.5936	-898.36121	-504.83234	462.40359	-937.29004	-555.52325	516.4632	-993.2486	-319.16443	137.09906	-1192.0924	-342.19379	191.59596	-1266.6392
203	1.005	-322.31879	75.943291	-675.82538	-371.01239	87.159645	-658.15076	-210.35182	527.51898	-542.55994	-306.6026	513.99506	-529.7016	-185.01778	972.95923	-748.63818	-480.77545	1010.2526	-890.11957	-513.87756	462.69055	-924.54504	-564.56976	517.75189	-980.14856	-325.40115	143.57036	-1186.2122	-348.97009	199.59659	-1259.2966
204	1.01	-322.55493	75.582237	-675.41608	-370.26947	87.224007	-658.58344	-209.30228	527.33722	-539.70007	-305.33292	513.67719	-527.91547	-182.57632	974.40546	-744.58722	-479.27917	1012.0743	-881.73395	-522.93445	463.47327	-910.27838	-573.86853	518.81909	-965.01459	-331.50418	150.55243	-1180.4442	-356.29025	208.1324	-1251.929
205	1.015	-322.5618	74.856888	-674.72491	-370.01263	87.264664	-658.37531	-208.32372	527.07922	-537.31122	-304.27893	513.43524	-525.99835	-180.09602	975.95325	-740.58734	-477.63708	1014.1533	-874.5174	-531.51532	464.29987	-895.263	-582.22888	520.3736	-950.65479	-338.26031	157.89827	-1174.2449	-364.5712	216.93459	-1244.0344
206	1.02	-321.31152	75.132256	-675.41595	-368.14893	87.104538	-660.43738	-207.2878	526.74042	-535.47467	-303.05341	514.00867	-522.94202	-177.93373	977.13947	-736.63684	-474.98053	1017.0637	-866.97455	-539.57629	465.36328	-879.61053	-590.3418	521.77966	-935.41248	-345.43808	165.49806	-1167.2571	-373.63855	225.77893	-1235.3933
207	1.025	-321.19464	74.854149	-675.23328	-368.75244	87.217575	-659.23871	-206.21858	526.20703	-533.95972	-301.84485	513.52429	-521.26044	-175.41223	979.11804	-733.02332	-475.17438	1017.5709	-859.50214	-546.71832	466.65015	-863.54688	-598.22644	522.45081	-916.66266	-353.05823	172.84309	-1159.6471	-383.22894	234.61653	-1226.0348
208	1.03	-321.01071	74.646477	-675.15405	-368.772	86.965752	-659.37329	-205.07742	525.61597	-532.66705	-300.58487	512.85712	-520.12079	-173.1163	980.73334	-729.07458	-473.96786	1018.3132	-853.18146	-553.46429	468.49091	-846.84186	-605.43317	524.10962	-899.93457	-361.48911	179.84169	-1151.1998	-393.28516	243.23616	-1216.0613
209	1.035	-320.12637	74.692398	-675.84003	-368.45874	87.009972	-659.61792	-203.80727	524.98535	-531.63245	-299.12479	512.07178	-519.38794	-170.92345	982.18793	-724.97601	-472.23019	1020.179	-847.02106	-559.39355	470.50677	-830.46045	-612.46924	526.24249	-882.58771	-369.79617	186.94768	-1142.177	-403.82153	251.94913	-1205.2947
210	1.04	-320.61588	74.398552	-675.20306	-368.50967	86.854652	-659.43256	-202.74568	524.33527	-530.53741	-297.92975	511.23904	-518.52777	-168.28036	983.91443	-721.65869	-471.07761	1021.2321	-840.6817	-564.79279	472.97571	-813.82782	-619.51117	528.36615	-864.09332	-378.19116	194.35321	-1132.4016	-414.51733	260.38205	-1193.7773
211	1.045	-320.56836	74.206627	-675.1015	-368.37057	86.865486	-659.37427	-201.55479	523.54279	-529.64001	-296.79532	510.90289	-517.61414	-165.82213	985.03058	-718.45544	-467.70004	1024.3247	-836.21796	-569.6626	475.94061	-797.16321	-625.79059	531.20813	-846.06219	-386.62759	202.45222	-1121.9023	-425.54956	268.71899	-1181.3485
212	1.05	-320.77795	74.115471	-674.72217	-368.2915	86.886368	-659.30017	-200.44461	522.80438	-528.91071	-295.59888	511.42871	-515.74396	-163.30829	986.74683	-714.22882	-468.47458	1024.0231	-829.30273	-574.28296	479.41266	-780.11682	-631.35077	535.02905	-827.68494	-394.95584	210.88023	-1110.6278	-436.72791	277.05591	-1168.2458
213	1.055	-320.62546	74.148186	-674.7713	-368.10043	86.959961	-659.34729	-199.21379	522.12878	-528.45862	-294.2807	510.60825	-515.93939	-161.1395	987.88135	-711.88678	-465.19525	1027.2279	-824.65936	-578.59576	483.53497	-762.9726	-636.48492	539.0741	-810.15796	-403.50037	219.69029	-1098.5411	-447.75177	285.25119	-1154.6788
